<?xml version="1.0" standalone="no"?>
<!DOCTYPE svg PUBLIC "-//W3C//DTD SVG 20010904//EN"
 "http://www.w3.org/TR/2001/REC-SVG-20010904/DTD/svg10.dtd">
<svg version="1.0" xmlns="http://www.w3.org/2000/svg"
 width="327.000000pt" height="327.000000pt" viewBox="0 0 327.000000 327.000000"
 preserveAspectRatio="xMidYMid meet">
<metadata>
Created by potrace 1.11, written by Peter Selinger 2001-2013
</metadata>
<g transform="translate(0.000000,327.000000) scale(0.100000,-0.100000)"
fill="#000000" stroke="none">
<path d="M662 2920 c-549 -99 -830 -720 -542 -1197 28 -45 50 -84 50 -87 0 -3
-38 -6 -85 -6 l-85 0 0 -110 0 -110 135 0 135 0 0 -535 0 -535 1155 0 1155 0
0 250 c0 138 2 250 4 250 2 0 124 -53 272 -119 l269 -118 3 -37 3 -36 70 0 69
0 0 590 0 590 -70 0 -70 0 0 -34 0 -34 -272 -120 -273 -121 -3 94 -3 94 47 58
c59 72 127 215 148 310 21 93 21 263 0 356 -63 282 -288 514 -575 593 -99 28
-309 25 -414 -4 -124 -36 -293 -136 -368 -220 -18 -20 -19 -20 -64 25 -92 89
-224 163 -348 198 -72 19 -269 28 -343 15z m193 -431 c144 -26 249 -120 289
-258 29 -99 13 -200 -46 -293 -73 -115 -222 -181 -356 -157 -120 22 -217 97
-271 209 -22 47 -26 68 -26 145 0 77 4 98 26 145 60 125 163 196 320 219 3 1
32 -4 64 -10z m1200 0 c104 -19 182 -69 238 -152 87 -128 87 -276 0 -404 -155
-230 -502 -200 -621 55 -23 49 -27 70 -27 147 0 77 4 98 27 147 31 67 105 145
163 173 31 15 111 38 156 44 3 1 32 -4 64 -10z"/>
</g>
</svg>
